# xmcd
#
# Track frame offsets:
#	150
#	14442
#	29300
#	39680
#	51797
#	67255
#	77960
#	91822
#	107757
#	123800
#	138190
#	147160
#	157987
#	172597
#	185145
#	192665
#	204955
#	223722
#	239947
#	251012
#	257170
#	269947
#
# Disc length: 3790 seconds
#
# Revision: 1
# Processed by: cddbd v1.5.1PL0 Copyright (c) Steve Scherf et al.
# Submitted via: CDex 1.50Beta5
#
DISCID=4e0ecc16
DTITLE=大野克夫バンド／大野克夫 - 名探偵コナン オリジナル・サウンドトラック・スーパー・ベスト2
DYEAR=2003
DGENRE=Soundtrack
TTITLE0=名探偵コナン メイン・テーマ（ベイカー街ヴァージョン）
TTITLE1=走るリムジン1
TTITLE2=ツインタワービルへ（スーパー・ベスト2 ヴァージョン）
TTITLE3=ゲームショー
TTITLE4=スペードのエース
TTITLE5=ホームズの部屋
TTITLE6=蘭・愛のテーマ
TTITLE7=昼下がりの天使たち（摩天楼ヴァージョン）
TTITLE8=想い出（世紀末ヴァージョン）
TTITLE9=少年探偵団のテーマ（摩天楼ヴァージョン）
TTITLE10=友情
TTITLE11=トリック
TTITLE12=アクアクリスタル内へ
TTITLE13=名探偵コナン メイン・テーマ（世紀末ヴァージョン）
TTITLE14=I'll Be There
TTITLE15=怪盗キッドの予告状1
TTITLE16=蘭のテーマ（世紀末ヴァージョン）
TTITLE17=暗殺者のテーマ〜事件の予感〜
TTITLE18=コナン行動開始！
TTITLE19=驚愕の真実
TTITLE20=究極の推理
TTITLE21=二人のデート
EXTD=
EXTT0=
EXTT1=
EXTT2=
EXTT3=
EXTT4=
EXTT5=
EXTT6=
EXTT7=
EXTT8=
EXTT9=
EXTT10=
EXTT11=
EXTT12=
EXTT13=
EXTT14=
EXTT15=
EXTT16=
EXTT17=
EXTT18=
EXTT19=
EXTT20=
EXTT21=
PLAYORDER=
